<mxfile host="app.diagrams.net" modified="2022-09-25T17:22:17.084Z" agent="5.0 (Windows)" etag="OWpoUVMA-qXcppebEZww" version="20.3.6" type="github">
  <diagram id="aw-yCcZevySmTfpU_dS_" name="Страница 1">
    <mxGraphModel dx="876" dy="425" grid="1" gridSize="10" guides="1" tooltips="1" connect="1" arrows="1" fold="1" page="1" pageScale="1" pageWidth="827" pageHeight="1169" math="0" shadow="0">
      <root>
        <mxCell id="0" />
        <mxCell id="1" parent="0" />
        <mxCell id="4LoF3xcJ_vZ8I_fZvGXv-9" value="User" style="swimlane;labelBackgroundColor=none;labelBorderColor=none;fontColor=#000000;" parent="1" vertex="1">
          <mxGeometry x="50" y="68" width="200" height="290" as="geometry" />
        </mxCell>
        <mxCell id="4LoF3xcJ_vZ8I_fZvGXv-10" value="&lt;div&gt;userID&lt;/div&gt;&lt;div&gt;&lt;br&gt;&lt;/div&gt;&lt;div&gt;name&lt;/div&gt;&lt;div&gt;&lt;br&gt;&lt;/div&gt;&lt;div&gt;userName&lt;/div&gt;&lt;div&gt;&lt;br&gt;&lt;/div&gt;&lt;div&gt;password&lt;/div&gt;&lt;div&gt;&lt;br&gt;&lt;/div&gt;&lt;div&gt;email&lt;/div&gt;&lt;div&gt;&lt;br&gt;&lt;/div&gt;&lt;div&gt;active&lt;/div&gt;&lt;div&gt;&lt;br&gt;&lt;/div&gt;&lt;div&gt;role&lt;br&gt;&lt;/div&gt;" style="text;html=1;align=center;verticalAlign=middle;resizable=0;points=[];autosize=1;strokeColor=none;fillColor=none;fontColor=#000000;" parent="4LoF3xcJ_vZ8I_fZvGXv-9" vertex="1">
          <mxGeometry x="60" y="40" width="80" height="200" as="geometry" />
        </mxCell>
        <mxCell id="4LoF3xcJ_vZ8I_fZvGXv-4" value="Events" style="swimlane;fontStyle=0;childLayout=stackLayout;horizontal=1;startSize=26;horizontalStack=0;resizeParent=1;resizeParentMax=0;resizeLast=0;collapsible=1;marginBottom=0;align=center;fontSize=14;fillColor=#f5f5f5;fontColor=#333333;strokeColor=#666666;" parent="1" vertex="1">
          <mxGeometry x="400" y="80" width="120" height="320" as="geometry" />
        </mxCell>
        <mxCell id="4LoF3xcJ_vZ8I_fZvGXv-5" value="eventID" style="text;strokeColor=none;fillColor=none;spacingLeft=4;spacingRight=4;overflow=hidden;rotatable=0;points=[[0,0.5],[1,0.5]];portConstraint=eastwest;fontSize=12;fontColor=#000000;labelBackgroundColor=none;labelBorderColor=#0000FF;" parent="4LoF3xcJ_vZ8I_fZvGXv-4" vertex="1">
          <mxGeometry y="26" width="120" height="30" as="geometry" />
        </mxCell>
        <mxCell id="4LoF3xcJ_vZ8I_fZvGXv-6" value="coordinates" style="text;strokeColor=none;fillColor=none;spacingLeft=4;spacingRight=4;overflow=hidden;rotatable=0;points=[[0,0.5],[1,0.5]];portConstraint=eastwest;fontSize=12;" parent="4LoF3xcJ_vZ8I_fZvGXv-4" vertex="1">
          <mxGeometry y="56" width="120" height="30" as="geometry" />
        </mxCell>
        <mxCell id="4LoF3xcJ_vZ8I_fZvGXv-7" value="&#xa;eventTItle&#xa;&#xa;eventDate&#xa;&#xa;eventTime&#xa;&#xa;createTime&#xa;&#xa;upateTime&#xa;&#xa;estimation&#xa;&#xa;&#xa;&#xa;&#xa;" style="text;strokeColor=none;fillColor=none;spacingLeft=4;spacingRight=4;overflow=hidden;rotatable=0;points=[[0,0.5],[1,0.5]];portConstraint=eastwest;fontSize=12;" parent="4LoF3xcJ_vZ8I_fZvGXv-4" vertex="1">
          <mxGeometry y="86" width="120" height="234" as="geometry" />
        </mxCell>
        <mxCell id="4LoF3xcJ_vZ8I_fZvGXv-13" value="" style="endArrow=classic;html=1;rounded=0;fontColor=#000000;entryX=0.017;entryY=0.145;entryDx=0;entryDy=0;entryPerimeter=0;" parent="1" target="4LoF3xcJ_vZ8I_fZvGXv-7" edge="1">
          <mxGeometry width="50" height="50" relative="1" as="geometry">
            <mxPoint x="250" y="200" as="sourcePoint" />
            <mxPoint x="440" y="250" as="targetPoint" />
            <Array as="points">
              <mxPoint x="390" y="200" />
            </Array>
          </mxGeometry>
        </mxCell>
        <mxCell id="4LoF3xcJ_vZ8I_fZvGXv-14" value="OneToMany" style="text;html=1;align=center;verticalAlign=middle;resizable=0;points=[];autosize=1;strokeColor=none;fillColor=none;fontColor=#000000;" parent="1" vertex="1">
          <mxGeometry x="270" y="170" width="90" height="30" as="geometry" />
        </mxCell>
        <mxCell id="4LoF3xcJ_vZ8I_fZvGXv-15" value="City" style="swimlane;labelBackgroundColor=none;labelBorderColor=none;fontColor=#000000;" parent="1" vertex="1">
          <mxGeometry x="360" y="600" width="200" height="110" as="geometry" />
        </mxCell>
        <mxCell id="4LoF3xcJ_vZ8I_fZvGXv-16" value="&lt;div&gt;cityID&lt;/div&gt;&lt;div&gt;&lt;br&gt;&lt;/div&gt;&lt;div&gt;title&lt;br&gt;&lt;/div&gt;" style="text;html=1;align=center;verticalAlign=middle;resizable=0;points=[];autosize=1;strokeColor=none;fillColor=none;fontColor=#000000;" parent="4LoF3xcJ_vZ8I_fZvGXv-15" vertex="1">
          <mxGeometry x="70" y="40" width="50" height="60" as="geometry" />
        </mxCell>
        <mxCell id="4LoF3xcJ_vZ8I_fZvGXv-17" value="" style="endArrow=classic;html=1;rounded=0;fontColor=#000000;startArrow=none;" parent="1" edge="1">
          <mxGeometry width="50" height="50" relative="1" as="geometry">
            <mxPoint x="442" y="550" as="sourcePoint" />
            <mxPoint x="442" y="400" as="targetPoint" />
          </mxGeometry>
        </mxCell>
        <mxCell id="4LoF3xcJ_vZ8I_fZvGXv-19" value="userEvents" style="swimlane;labelBackgroundColor=none;labelBorderColor=none;fontColor=#000000;" parent="1" vertex="1">
          <mxGeometry x="50" y="485" width="200" height="200" as="geometry" />
        </mxCell>
        <mxCell id="4LoF3xcJ_vZ8I_fZvGXv-21" value="&lt;div&gt;userEventsID&lt;/div&gt;&lt;div&gt;&lt;br&gt;&lt;/div&gt;&lt;div&gt;eventsName&lt;/div&gt;&lt;div&gt;&lt;br&gt;&lt;/div&gt;&lt;div&gt;&lt;br&gt;&lt;/div&gt;" style="text;html=1;align=center;verticalAlign=middle;resizable=0;points=[];autosize=1;strokeColor=none;fillColor=none;fontColor=#000000;" parent="4LoF3xcJ_vZ8I_fZvGXv-19" vertex="1">
          <mxGeometry x="40" y="40" width="100" height="90" as="geometry" />
        </mxCell>
        <mxCell id="4LoF3xcJ_vZ8I_fZvGXv-22" value="" style="endArrow=classic;html=1;rounded=0;fontColor=#000000;entryX=0.45;entryY=0.025;entryDx=0;entryDy=0;entryPerimeter=0;" parent="1" target="4LoF3xcJ_vZ8I_fZvGXv-19" edge="1">
          <mxGeometry width="50" height="50" relative="1" as="geometry">
            <mxPoint x="140" y="360" as="sourcePoint" />
            <mxPoint x="190" y="390" as="targetPoint" />
          </mxGeometry>
        </mxCell>
        <mxCell id="4LoF3xcJ_vZ8I_fZvGXv-23" value="OneToMany" style="text;html=1;align=center;verticalAlign=middle;resizable=0;points=[];autosize=1;strokeColor=none;fillColor=none;fontColor=#000000;" parent="1" vertex="1">
          <mxGeometry x="90" y="400" width="90" height="30" as="geometry" />
        </mxCell>
        <mxCell id="4LoF3xcJ_vZ8I_fZvGXv-24" value="" style="endArrow=classic;html=1;rounded=0;fontColor=#000000;entryX=0;entryY=0.316;entryDx=0;entryDy=0;entryPerimeter=0;" parent="1" target="4LoF3xcJ_vZ8I_fZvGXv-7" edge="1">
          <mxGeometry width="50" height="50" relative="1" as="geometry">
            <mxPoint x="250" y="570" as="sourcePoint" />
            <mxPoint x="390" y="240" as="targetPoint" />
            <Array as="points">
              <mxPoint x="350" y="570" />
              <mxPoint x="350" y="240" />
            </Array>
          </mxGeometry>
        </mxCell>
        <mxCell id="4LoF3xcJ_vZ8I_fZvGXv-25" value="OneToMany" style="text;html=1;align=center;verticalAlign=middle;resizable=0;points=[];autosize=1;strokeColor=none;fillColor=none;fontColor=#000000;" parent="1" vertex="1">
          <mxGeometry x="300" y="350" width="90" height="30" as="geometry" />
        </mxCell>
        <mxCell id="4LoF3xcJ_vZ8I_fZvGXv-18" value="OneToMany" style="text;html=1;align=center;verticalAlign=middle;resizable=0;points=[];autosize=1;strokeColor=none;fillColor=none;fontColor=#000000;" parent="1" vertex="1">
          <mxGeometry x="400" y="460" width="90" height="30" as="geometry" />
        </mxCell>
        <mxCell id="4LoF3xcJ_vZ8I_fZvGXv-26" value="" style="endArrow=none;html=1;rounded=0;fontColor=#000000;exitX=0.41;exitY=-0.025;exitDx=0;exitDy=0;exitPerimeter=0;" parent="1" source="4LoF3xcJ_vZ8I_fZvGXv-15" edge="1">
          <mxGeometry width="50" height="50" relative="1" as="geometry">
            <mxPoint x="442" y="597.25" as="sourcePoint" />
            <mxPoint x="442" y="440" as="targetPoint" />
          </mxGeometry>
        </mxCell>
      </root>
    </mxGraphModel>
  </diagram>
</mxfile>
